#!OML:ASF E:\inclinewalkrobotboard\Project 1\Capture day 1\Session 1\subject1.ASF
:FULLY-SPECIFIED
:DEGREES
441
root 9.21648 27.7774 -10.8152 -168.419 1.07965 180.267
lowerback -7.35636 0.574337 -5.70252
upperback 2.29764 1.22462 1.97128
thorax 6.3971 0.335812 5.45172
lowerneck 7.55137 -0.221193 -6.63225
upperneck 18.9126 -3.62577 4.80142
head 4.63225 -2.89148 2.47576
rclavicle -1.59028e-014 -2.06736e-014
rhumerus -43.6453 -31.145 -65.8481
rradius 25.4445
rwrist 16.8449
rhand -13.1534 -36.7396
rfingers 7.12502
rthumb 12.9453 -66.3181
lclavicle -1.59028e-014 -2.06736e-014
lhumerus -31.5933 12.5851 81.5712
lradius 19.636
lwrist -27.5805
lhand -21.6503 -18.9069
lfingers 7.12502
lthumb 4.74649 11.0199
rfemur -11.0785 7.48426 20.6316
rtibia 15.2338
rfoot -30.4819 -4.01509
rtoes -19.6248
lfemur -8.88996 -12.5108 -19.9283
ltibia 14.4634
lfoot -34.0539 7.74106
ltoes -64.2161
442
root 9.21608 27.7767 -10.8156 -168.406 1.19099 180.313
lowerback -7.37542 0.650345 -5.63627
upperback 2.31072 1.3229 1.93936
thorax 6.41009 0.386823 5.39266
lowerneck 7.72207 -0.276226 -6.47004
upperneck 18.8256 -3.72633 4.91518
head 4.58249 -2.92863 2.48506
rclavicle -6.4605e-016 -5.1684e-015
rhumerus -43.9235 -31.4086 -65.5715
rradius 25.3275
rwrist 16.8816
rhand -12.7684 -36.7958
rfingers 7.12502
rthumb 13.3164 -66.3503
lclavicle -6.4605e-016 -5.1684e-015
lhumerus -31.7302 12.5321 81.3976
lradius 19.4926
lwrist -27.8685
lhand -21.6429 -18.8759
lfingers 7.12502
lthumb 4.75361 11.0508
rfemur -11.1227 7.60046 20.6796
rtibia 15.278
rfoot -30.5175 -4.03762
rtoes -19.7024
lfemur -8.83629 -12.6255 -19.9108
ltibia 14.4013
lfoot -34.1567 7.77413
ltoes -64.0254
443
root 9.2151 27.7763 -10.8111 -168.375 1.3647 180.337
lowerback -7.33264 0.686259 -5.55001
upperback 2.30462 1.36259 1.88702
thorax 6.376 0.412269 5.29103
lowerneck 8.01419 -0.30116 -6.32428
upperneck 18.6231 -3.76619 4.91978
head 4.47358 -2.94203 2.46654
rclavicle -1.62506e-014 -2.26615e-014
rhumerus -44.0595 -30.3837 -66.2117
rradius 25.8336
rwrist 15.5184
rhand -12.8042 -37.1609
rfingers 7.12502
rthumb 13.2819 -66.7177
lclavicle -1.62506e-014 -2.26615e-014
lhumerus -31.7994 12.9425 81.0138
lradius 19.1771
lwrist -28.7824
lhand -21.9961 -19.1365
lfingers 7.12502
lthumb 4.41249 10.7975
rfemur -11.2278 7.74274 20.6845
rtibia 15.3722
rfoot -30.5069 -4.0463
rtoes -19.6532
lfemur -8.82021 -12.6225 -19.9213
ltibia 14.346
lfoot -34.1235 8.12959
ltoes -64.2015
444
root 9.21296 27.7776 -10.8073 -168.368 1.47124 180.334
lowerback -7.21451 0.709112 -5.40479
upperback 2.27014 1.37691 1.78157
thorax 6.27397 0.431473 5.09338
lowerneck 8.35739 -0.334499 -6.10702
upperneck 18.452 -3.82883 4.91021
head 4.36652 -2.96848 2.43189
rclavicle 8.94531e-015 7.95139e-015
rhumerus -44.4085 -28.8145 -67.2634
rradius 26.8985
rwrist 13.5414
rhand -12.9853 -37.9841
rfingers 7.12502
rthumb 13.1073 -67.5522
lclavicle 8.94531e-015 7.95139e-015
lhumerus -31.9412 12.8558 80.7499
lradius 19.0595
lwrist -29.1023
lhand -22.294 -19.1081
lfingers 7.12502
lthumb 4.12485 10.8317
rfemur -11.2399 7.73776 20.6642
rtibia 15.3357
rfoot -30.4538 -4.03409
rtoes -19.9786
lfemur -8.82052 -12.5852 -19.9587
ltibia 14.3419
lfoot -34.0447 8.45851
ltoes -64.4774
445
root 9.21166 27.7789 -10.8058 -168.344 1.51357 180.339
lowerback -7.15897 0.747721 -5.35469
upperback 2.21479 1.42095 1.74469
thorax 6.17919 0.460239 5.02791
lowerneck 8.28316 -0.381193 -6.16096
upperneck 18.5555 -3.93068 5.05281
head 4.41836 -3.01978 2.48197
rclavicle -6.41081e-015 1.74931e-014
rhumerus -44.9837 -28.8318 -67.1148
rradius 27.2056
rwrist 13.4059
rhand -12.8435 -38.4144
rfingers 7.12502
rthumb 13.244 -67.9737
lclavicle -6.41081e-015 1.74931e-014
lhumerus -32.332 12.0101 80.8631
lradius 19.3541
lwrist -28.5315
lhand -22.4397 -18.8452
lfingers 7.12502
lthumb 3.98415 11.0973
rfemur -11.2439 7.70292 20.6596
rtibia 15.2353
rfoot -30.3961 -3.95108
rtoes -19.941
lfemur -8.8455 -12.5921 -19.9578
ltibia 14.3395
lfoot -34.1234 8.18896
ltoes -64.2067
